<?xml version="1.0" encoding="utf-8" ?><svg xmlns="http://www.w3.org/2000/svg" xmlns:xlink="http://www.w3.org/1999/xlink" width="183" height="226" viewBox="0 0 183 226"><defs><linearGradient id="gradient_0" gradientUnits="userSpaceOnUse" x1="29.927338" y1="129.77686" x2="130.66853" y2="91.490822"><stop offset="0" stop-color="#ECD075"/><stop offset="1" stop-color="#FFF0A9"/></linearGradient></defs><path fill="url(#gradient_0)" d="M12.5311 9.20867C40.6343 9.64152 69.7773 9.26569 97.9646 9.29206L120.599 9.31C124.47 9.30808 130.558 9.12005 134.234 9.57214C137.659 11.823 137.24 14.7182 137.279 18.4253C137.316 21.9473 137.201 25.4778 137.245 29.001C140.531 29.1645 143.8 29.5986 147.065 29.9714C149.384 30.2363 151.955 30.2716 153.653 32.1259C154.557 33.1128 155.008 34.5584 155.127 35.8887C155.458 41.3707 155.291 46.9482 155.28 52.45L155.291 83.9261C155.419 95.1575 155.422 106.39 155.303 117.622C155.271 122.277 154.745 132.319 155.484 136.428C156.267 140.779 163.745 144.928 165.535 149.487C166.184 151.14 166.217 194.909 165.892 199.671C165.801 200.99 165.78 202.291 164.703 203.201C161.446 205.956 145.567 201.42 144.604 202.957C144.784 205.43 145.3 209.454 144.412 211.612C143.088 212.732 135.927 210.648 133.965 210.178L120.312 206.902C118.172 206.388 108.778 204.339 107.199 203.747C106.786 206.868 107.983 210.868 104.784 212.391C102.789 212.192 88.49 207.27 85.6329 206.43C78.5597 204.35 70.5225 201.795 63.4425 199.473C61.2163 198.743 56.5468 197.379 54.6287 196.421C54.2907 200.292 55.2809 212.481 53.5292 214.553C51.757 215.061 47.5558 210.981 45.9819 209.735L32.4018 198.88C29.0761 196.212 13.4881 184.333 11.9112 181.754C11.5233 179.171 11.7478 168.251 11.7505 164.881L11.78 128.172L11.7953 51.154C11.7959 37.9882 11.7674 24.7926 11.833 11.6251C11.8383 10.5671 11.9734 10.1115 12.5311 9.20867Z"/><defs><linearGradient id="gradient_1" gradientUnits="userSpaceOnUse" x1="44.671925" y1="119.017" x2="168.33464" y2="84.349091"><stop offset="0" stop-color="#E0B958"/><stop offset="1" stop-color="#FDE386"/></linearGradient></defs><path fill="url(#gradient_1)" d="M12.5311 9.20867C40.6343 9.64152 69.7773 9.26569 97.9646 9.29206L120.599 9.31C124.47 9.30808 130.558 9.12005 134.234 9.57214C137.659 11.823 137.24 14.7182 137.279 18.4253C137.316 21.9473 137.201 25.4778 137.245 29.001C140.531 29.1645 143.8 29.5986 147.065 29.9714C149.384 30.2363 151.955 30.2716 153.653 32.1259C154.557 33.1128 155.008 34.5584 155.127 35.8887C155.458 41.3707 155.291 46.9482 155.28 52.45L155.291 83.9261C155.419 95.1575 155.422 106.39 155.303 117.622C155.271 122.277 154.745 132.319 155.484 136.428C156.267 140.779 163.745 144.928 165.535 149.487C166.184 151.14 166.217 194.909 165.892 199.671C165.801 200.99 165.78 202.291 164.703 203.201C161.446 205.956 145.567 201.42 144.604 202.957C144.784 205.43 145.3 209.454 144.412 211.612C143.088 212.732 135.927 210.648 133.965 210.178L120.312 206.902C118.172 206.388 108.778 204.339 107.199 203.747C107.52 198.569 107.478 193.194 107.538 187.984L107.468 186.66C107.456 183.605 107.472 180.551 107.516 177.497L107.429 174.962C107.431 171.835 107.462 168.708 107.523 165.582L107.361 163.825C107.75 160.066 106.483 157.743 109.446 154.642L110.491 153.288C111.407 152.313 112.846 150.221 113.684 149.074C113.927 147.207 113.908 144.787 113.947 142.868L113.944 138.364C113.849 137.573 113.861 135.754 113.842 134.884C113.452 127.528 113.841 118.335 113.763 110.788L113.731 109.085C113.732 105.787 113.753 102.488 113.793 99.1896L113.641 97.6032C113.902 95.3778 113.688 90.4325 113.828 87.7611L113.727 86.2349C113.686 82.9861 113.713 79.7367 113.808 76.489L113.709 74.8228C113.676 71.6148 113.706 68.4064 113.798 65.1996L113.661 63.6572C113.689 61.2559 113.365 48.4138 113.938 47.0633C113.835 41.3061 107.579 40.5115 103.219 39.1331L91.8819 35.4833C82.2904 32.3905 69.7286 27.9483 60.2494 25.4389C59.342 24.9465 54.3895 23.4786 53.1713 23.0774C46.97 21.0355 40.2421 19.379 34.2381 16.8781C34.1997 20.2338 34.2245 23.5899 34.3124 26.9447C27.6072 21.9919 21.0688 16.3315 14.4141 11.2742C13.6759 10.7132 13.6965 9.68878 12.5311 9.20867Z"/><defs><linearGradient id="gradient_2" gradientUnits="userSpaceOnUse" x1="104.81709" y1="130.60471" x2="146.52486" y2="128.91502"><stop offset="0" stop-color="#D8D7D7"/><stop offset="1" stop-color="#FEFEFE"/></linearGradient></defs><path fill="url(#gradient_2)" d="M113.938 47.0633C122.57 49.3374 131.613 50.8169 140.299 52.9703C141.553 53.2812 142.98 53.6178 144.248 53.8511C144.137 66.8302 144.108 79.8097 144.159 92.7891L144.156 158.286C144.156 163.508 143.611 200.054 144.604 202.957C144.784 205.43 145.3 209.454 144.412 211.612C143.088 212.732 135.927 210.648 133.965 210.178L120.312 206.902C118.172 206.388 108.778 204.339 107.199 203.747C107.52 198.569 107.478 193.194 107.538 187.984L107.468 186.66C107.456 183.605 107.472 180.551 107.516 177.497L107.429 174.962C107.431 171.835 107.462 168.708 107.523 165.582L107.361 163.825C107.75 160.066 106.483 157.743 109.446 154.642L110.491 153.288C111.407 152.313 112.846 150.221 113.684 149.074C113.927 147.207 113.908 144.787 113.947 142.868L113.944 138.364C113.849 137.573 113.861 135.754 113.842 134.884C113.452 127.528 113.841 118.335 113.763 110.788L113.731 109.085C113.732 105.787 113.753 102.488 113.793 99.1896L113.641 97.6032C113.902 95.3778 113.688 90.4325 113.828 87.7611L113.727 86.2349C113.686 82.9861 113.713 79.7367 113.808 76.489L113.709 74.8228C113.676 71.6148 113.706 68.4064 113.798 65.1996L113.661 63.6572C113.689 61.2559 113.365 48.4138 113.938 47.0633Z"/><path fill="#67B5EC" d="M113.938 120.191C120.743 121.508 128.338 123.39 135.212 124.893C135.224 126.722 135.127 133.091 135.326 134.526C135.199 135.613 135.251 135.947 134.467 136.77C133.767 138.781 134.865 144.058 134.471 145.148L133.808 145.438C132.478 145.259 132.189 145.162 130.96 144.625L130.446 144.747C127.063 143.041 123.055 141.758 119.295 139.905C117.548 139.354 115.712 138.853 113.944 138.364C113.849 137.573 113.861 135.754 113.842 134.884C114.078 133.717 113.997 131.384 113.992 130.107L113.938 120.191Z"/><path fill="#A5D1ED" d="M113.992 130.107C117.204 129.832 118.146 131.466 120.026 133.746C121.388 134 122.457 134.184 123.774 134.613L125.999 133.455C130.028 134.576 132.224 133.599 134.467 136.77C133.767 138.781 134.865 144.058 134.471 145.148L133.808 145.438C132.478 145.259 132.189 145.162 130.96 144.625L130.446 144.747C127.063 143.041 123.055 141.758 119.295 139.905C117.548 139.354 115.712 138.853 113.944 138.364C113.849 137.573 113.861 135.754 113.842 134.884C114.078 133.717 113.997 131.384 113.992 130.107Z"/><path fill="#67B5EC" d="M119.295 139.905L119.446 139.845C121.568 138.995 120.367 138.146 123.369 139.466C125.442 140.377 127.486 141.251 129.496 142.348C131.048 143.196 130.346 143.851 130.96 144.625L130.446 144.747C127.063 143.041 123.055 141.758 119.295 139.905Z"/><path fill="#327FB4" d="M113.944 138.364C115.712 138.853 117.548 139.354 119.295 139.905C123.055 141.758 127.063 143.041 130.446 144.747L130.96 144.625C132.189 145.162 132.478 145.259 133.808 145.438C134.027 145.472 134.697 145.529 134.761 145.653C135.668 147.431 134.715 151.676 135.167 153.509C128.49 152.517 119.998 149.803 113.684 149.074C113.927 147.207 113.908 144.787 113.947 142.868L113.944 138.364Z"/><path fill="#335033" d="M113.944 138.364C115.712 138.853 117.548 139.354 119.295 139.905C123.055 141.758 127.063 143.041 130.446 144.747C130.925 144.958 131.138 144.993 131.397 145.441L131.134 145.649C125.077 144.61 120.079 143.715 113.947 142.868L113.944 138.364Z"/><path fill="#327FB4" d="M113.731 109.085C120.266 109.741 127.375 112.361 133.91 113.436C134.971 113.611 135.471 114.571 135.01 115.6C133.451 116.121 117.121 112.353 114.283 111.77C113.963 111.352 113.921 111.289 113.763 110.788L113.731 109.085Z"/><path fill="#C4C3C4" d="M107.429 174.962C112.49 175.528 117.989 177.376 122.997 178.616C126.041 179.369 132.617 180.099 134.942 181.618L135.13 181.999C133.518 183.328 110.94 176.415 107.516 177.497L107.429 174.962Z"/><path fill="#C4C3C4" d="M107.361 163.825C114.643 165.063 121.206 166.829 128.32 168.662C129.656 169.006 134.071 169.624 134.946 170.174L135.121 170.654C133.25 171.666 127.347 169.071 125.668 169.143C123.402 169.239 108.549 165.537 107.724 165.693L107.523 165.582L107.361 163.825Z"/><path fill="#A5D1ED" d="M113.641 97.6032C117.043 97.802 132.944 100.929 135.258 102.662L135.32 103.194L135.719 103.101C132.919 104.503 117.957 99.5769 113.793 99.1896L113.641 97.6032Z"/><path fill="#C4C3C4" d="M110.491 153.288C113.232 153.613 134.171 157.969 135.106 159.182C135.191 159.293 135.186 159.291 135.248 159.396C134.393 160.43 112.238 155.335 109.446 154.642L110.491 153.288Z"/><path fill="#A5D1ED" d="M113.661 63.6572C116.621 63.8872 133.506 67.3505 135.357 68.7527L135.326 69.0478C132.309 70.1675 117.837 66.2364 113.798 65.1996L113.661 63.6572Z"/><path fill="#A5D1ED" d="M113.709 74.8228C116.525 74.9737 131.782 78.5574 134.911 79.6088C135.292 80.1748 135.217 79.9015 135.118 80.6766C134.678 80.9418 134.071 80.9824 133.581 80.8623C127.493 79.37 121.326 78.3166 115.175 77.1248C114.509 76.9956 114.271 76.9462 113.808 76.489L113.709 74.8228Z"/><path fill="#67B5EC" d="M113.727 86.2349C117.296 86.4534 123.899 88.587 128.049 89.2318L127.08 90.6464C124.625 90.0291 115.196 88.4632 113.828 87.7611L113.727 86.2349Z"/><defs><linearGradient id="gradient_3" gradientUnits="userSpaceOnUse" x1="108.51952" y1="185.76382" x2="123.06613" y2="191.87724"><stop offset="0" stop-color="#989A9A"/><stop offset="1" stop-color="#CDC9CA"/></linearGradient></defs><path fill="url(#gradient_3)" d="M107.468 186.66C112.597 187.327 118.981 189.435 124.544 189.962C123.88 190.669 123.579 191.095 122.625 191.335C118.325 190.087 111.849 188.597 107.538 187.984L107.468 186.66Z"/><path fill="#C4C3C4" d="M124.544 189.962C126.875 190.506 134.223 191.442 135.239 193.432C133.642 194.282 124.913 191.885 122.625 191.335C123.579 191.095 123.88 190.669 124.544 189.962Z"/><path fill="#A5D1ED" d="M128.049 89.2318C130.26 89.6305 133.406 89.9446 135.122 91.3286L135.248 91.7816C133.839 92.9112 128.665 91.171 127.08 90.6464L128.049 89.2318Z"/><path fill="#C4C3C4" d="M135.326 134.526C135.497 137.202 135.684 151.448 135.167 153.509C134.715 151.676 135.668 147.431 134.761 145.653C134.697 145.529 134.027 145.472 133.808 145.438L134.471 145.148C134.865 144.058 133.767 138.781 134.467 136.77C135.251 135.947 135.199 135.613 135.326 134.526Z"/><path fill="#FEE79A" d="M12.5311 9.20867C13.6965 9.68878 13.6759 10.7132 14.4141 11.2742C21.0688 16.3315 27.6072 21.9919 34.3124 26.9447C34.2245 23.5899 34.1997 20.2338 34.2381 16.8781C40.2421 19.379 46.97 21.0355 53.1713 23.0774C54.3895 23.4786 59.342 24.9465 60.2494 25.4389C59.1854 25.9086 38.2879 18.4377 34.7501 17.7328L34.75 27.0752C35.5666 27.6672 37.6694 29.453 38.4429 29.5839C40.0074 28.4062 38.6483 24.9867 40.2111 23.819C42.6975 24.2312 40.8918 29.0381 41.5604 30.991C42.3326 33.2467 42.413 33.1304 44.25 34.6128C44.2397 32.6596 44.0778 27.5894 44.9994 26.0524L45.336 25.9807C46.7609 27.6414 46.1982 32.4463 46.3791 34.6564L46.1147 34.7656C45.9415 35.0091 45.5967 35.5265 45.415 35.7248C47.5323 36.9652 58.0802 45.4194 58.3276 47.5771C58.9896 53.3507 58.6456 60.3567 58.5849 66.2451L58.4676 95.3522L58.4133 132.553C58.4059 138.465 58.4735 144.603 58.3693 150.565C58.3059 154.19 55.196 159.358 54.811 161.968C54.262 165.689 54.3574 195.744 54.6287 196.421C54.2907 200.292 55.2809 212.481 53.5292 214.553C51.757 215.061 47.5558 210.981 45.9819 209.735L32.4018 198.88C29.0761 196.212 13.4881 184.333 11.9112 181.754C11.5233 179.171 11.7478 168.251 11.7505 164.881L11.78 128.172L11.7953 51.154C11.7959 37.9882 11.7674 24.7926 11.833 11.6251C11.8383 10.5671 11.9734 10.1115 12.5311 9.20867Z"/><path fill="#FCDE79" d="M45.415 35.7248L44.6794 35.0393C44.187 33.945 44.474 27.4053 45.562 26.9087C45.9021 27.8657 45.8431 32.8826 46.1147 34.7656C45.9415 35.0091 45.5967 35.5265 45.415 35.7248Z"/><path fill="#FCDE79" d="M40.2498 24.105C40.7329 24.5679 40.9771 24.7538 40.9532 25.4959C40.914 26.7137 41.5277 31.2627 40.8752 32.0614C40.5326 31.7914 39.7961 31.2205 39.6868 30.8304C39.2514 29.2758 39.5915 25.4989 40.2498 24.105Z"/></svg>